#!OML:ASF E:\emotionWalksFemale\Project 1\Capture day 1\Session 1\Female1.ASF
:FULLY-SPECIFIED
:DEGREES
2446
root 8.28489 15.0037 38.3454 -170.082 -72.4744 534.951
lowerback 6.49862 -6.36423 -1.72721
upperback 1.11175 -8.59454 0.941047
thorax -2.06569 -4.28577 2.59555
lowerneck -1.08369 -14.9841 -9.28365
upperneck 13.0506 -23.1534 15.448
head 7.07426 -11.1647 4.35353
rclavicle 8.63021e-014 -2.20589e-014
rhumerus -54.4761 13.0398 -67.0323
rradius 44.1284
rwrist 21.7183
rhand -12.2842 -56.0649
rfingers 7.12502
rthumb -166.217 1894.41
lclavicle 8.63021e-014 -2.20589e-014
lhumerus 30.3596 -60.1781 56.5012
lradius 68.5139
lwrist -10.4911
lhand -11.8717 -37.4351
lfingers 7.12502
lthumb 14.1806 -7.93912
rfemur -14.4477 14.902 28.4578
rtibia 34.9983
rfoot -18.7218 -10.0213
rtoes 17.8456
lfemur -23.739 -8.15962 -15.0801
ltibia 45.8297
lfoot -26.8568 -4.68472
ltoes -43.7582
2447
root 8.22063 15.0116 38.3963 -170.415 -69.9705 535.068
lowerback 6.68349 -5.9296 -1.94256
upperback 1.48004 -8.04437 0.816497
thorax -1.80561 -4.02268 2.54296
lowerneck -1.64612 -15.4517 -8.43723
upperneck 12.6992 -23.7785 15.5009
head 7.04791 -11.4085 4.13194
rclavicle 1.13481e-013 -5.97441e-015
rhumerus -54.6885 11.9525 -67.0162
rradius 44.993
rwrist 21.3665
rhand -12.7116 -55.8255
rfingers 7.12502
rthumb -166.629 1894.62
lclavicle 1.13481e-013 -5.97441e-015
lhumerus 34.1821 -60.518 51.8293
lradius 71.2035
lwrist -9.18403
lhand -11.4241 -37.307
lfingers 7.12502
lthumb 14.6119 -7.84178
rfemur -14.1333 15.2277 28.1502
rtibia 35.2078
rfoot -19.3152 -9.16059
rtoes 21.9415
lfemur -23.1334 -9.68826 -15.0133
ltibia 44.3369
lfoot -27.0056 -4.90313
ltoes -43.4702
2448
root 8.15471 15.0201 38.4745 -171.37 -67.6785 536.231
lowerback 6.72737 -5.6632 -1.24925
upperback 1.66903 -7.64964 0.72853
thorax -1.759 -3.83217 2.04562
lowerneck -2.28146 -15.8098 -7.2385
upperneck 12.3751 -24.2127 15.2493
head 6.9305 -11.5623 3.80304
rclavicle 4.8519e-014 -1.14674e-014
rhumerus -54.8734 11.188 -67.2366
rradius 45.6998
rwrist 21.1068
rhand -13.1282 -55.6712
rfingers 7.12502
rthumb -167.03 1894.75
lclavicle 4.8519e-014 -1.14674e-014
lhumerus 35.5257 -60.3189 49.3035
lradius 74.1959
lwrist -8.70817
lhand -10.3521 -37.178
lfingers 7.12502
lthumb 15.6446 -7.79059
rfemur -14.2416 15.0963 28.0822
rtibia 35.2764
rfoot -19.7282 -8.08264
rtoes 25.2406
lfemur -23.0669 -11.5686 -14.4816
ltibia 42.9575
lfoot -27.5162 -5.14545
ltoes -44.3427
2449
root 8.08792 15.0375 38.5386 -171.922 -65.1365 537.316
lowerback 6.43976 -5.46512 -0.844189
upperback 1.78451 -7.36169 0.619774
thorax -1.55802 -3.69326 1.65699
lowerneck -3.24037 -15.9622 -5.26571
upperneck 12.3896 -24.3592 14.3662
head 6.76107 -11.5591 3.21082
rclavicle -6.88913e-014 6.65929e-015
rhumerus -54.9038 10.4702 -67.791
rradius 46.2949
rwrist 21.2044
rhand -13.1356 -55.5291
rfingers 7.12502
rthumb -167.038 1894.89
lclavicle -6.88913e-014 6.65929e-015
lhumerus 38.9056 -60.1214 44.2294
lradius 76.7599
lwrist -7.16365
lhand -10.1928 -36.3819
lfingers 7.12502
lthumb 15.798 -7.00656
rfemur -14.7371 15.034 28.078
rtibia 35.386
rfoot -19.6639 -7.53494
rtoes 26.4126
lfemur -23.243 -13.0546 -13.8312
ltibia 41.7865
lfoot -27.4509 -6.30223
ltoes -41.9259
2450
root 8.02205 15.053 38.5801 -172.579 -62.5445 537.886
lowerback 6.58992 -5.07613 -0.966147
upperback 2.01107 -6.86378 0.504086
thorax -1.42367 -3.45105 1.57225
lowerneck -3.866 -16.1845 -3.41461
upperneck 12.3657 -24.6382 13.5101
head 6.552 -11.6485 2.66793
rclavicle -3.86636e-014 1.81888e-014
rhumerus -55.2918 9.47357 -68.1587
rradius 46.9177
rwrist 21.1128
rhand -13.589 -55.4482
rfingers 7.12502
rthumb -167.475 1894.95
lclavicle -3.86636e-014 1.81888e-014
lhumerus 40.399 -59.8515 41.1369
lradius 79.4721
lwrist -6.1445
lhand -10.15 -36.098
lfingers 7.12502
lthumb 15.8392 -6.72587
rfemur -14.4701 14.9531 28.2484
rtibia 35.384
rfoot -19.635 -7.57838
rtoes 25.7752
lfemur -22.6563 -14.1077 -13.5591
ltibia 40.8255
lfoot -27.6955 -6.43134
ltoes -42.2451
2451
root 7.95424 15.0768 38.6469 -172.588 -59.8633 538.152
lowerback 6.54005 -4.64091 -0.745153
upperback 2.06583 -6.27653 0.292683
thorax -1.40594 -3.15877 1.18777
lowerneck -4.21922 -16.4146 -1.52424
upperneck 11.9394 -24.8985 12.8215
head 6.18128 -11.7604 2.22499
rclavicle 9.21864e-015 -2.127e-014
rhumerus -55.7144 8.55071 -68.5381
rradius 47.3924
rwrist 20.6102
rhand -14.0545 -55.3475
rfingers 7.12502
rthumb -167.923 1895.02
lclavicle 9.21864e-015 -2.127e-014
lhumerus 42.6135 -59.6768 37.8181
lradius 81.7771
lwrist -4.99627
lhand -10.0985 -35.9568
lfingers 7.12502
lthumb 15.8888 -6.58864
rfemur -14.757 14.5847 28.029
rtibia 35.4366
rfoot -19.6532 -7.18724
rtoes 22.7284
lfemur -22.5849 -14.9189 -13.4898
ltibia 39.9432
lfoot -28.0788 -5.68812
ltoes -44.422
2452
root 7.88103 15.0849 38.7168 -172.288 -57.3328 538.224
lowerback 6.23415 -4.90732 -0.501551
upperback 1.3883 -6.58885 0.612773
thorax -1.91636 -3.29944 1.4133
lowerneck -1.25786 -15.7877 -3.82839
upperneck 10.6206 -23.8657 13.9719
head 5.59907 -11.51 3.24581
rclavicle -3.50234e-014 -6.16232e-015
rhumerus -56.6411 10.5527 -68.8683
rradius 47.9809
rwrist 19.543
rhand -13.8223 -55.247
rfingers 7.12502
rthumb -167.7 1895.13
lclavicle -3.50234e-014 -6.16232e-015
lhumerus 38.9196 -59.3296 39.7832
lradius 84.1218
lwrist -4.5823
lhand -10.4304 -35.3445
lfingers 7.12502
lthumb 15.5692 -5.95116
rfemur -15.6375 14.4318 27.5865
rtibia 35.5518
rfoot -18.9839 -6.85555
rtoes 20.4705
lfemur -22.7355 -15.7617 -13.5048
ltibia 39.1275
lfoot -28.0308 -5.90232
ltoes -44.1904
2453
root 7.81822 15.0964 38.7481 -172.644 -54.5457 538.358
lowerback 6.37844 -5.15717 -1.09318
upperback 0.935391 -6.94211 1.20424
thorax -2.31083 -3.46232 2.40473
lowerneck 0.537498 -14.9553 -6.25436
upperneck 10.749 -22.7715 14.2473
head 5.53225 -11.1358 3.89172
rclavicle 3.89369e-014 -2.45499e-014
rhumerus -57.4961 12.8591 -68.9694
rradius 48.7072
rwrist 18.7732
rhand -14.486 -55.0448
rfingers 7.12502
rthumb -168.34 1895.3
lclavicle 3.89369e-014 -2.45499e-014
lhumerus 34.3704 -58.8064 42.5056
lradius 86.5995
lwrist -4.50027
lhand -10.69 -33.6772
lfingers 7.12502
lthumb 15.3191 -4.26458
rfemur -15.3212 14.8356 27.5439
rtibia 35.753
rfoot -18.8242 -6.60506
rtoes 22.2387
lfemur -21.9318 -16.0382 -13.6656
ltibia 38.3566
lfoot -27.9533 -7.15078
ltoes -41.8135
2454
root 7.74987 15.1234 38.7958 -172.51 -51.967 538.477
lowerback 6.21236 -5.66795 -1.50566
upperback 0.295523 -7.62554 2.04407
thorax -2.67974 -3.78534 3.55808
lowerneck 2.1001 -13.8109 -8.97973
upperneck 11.0825 -21.2908 14.2201
head 5.48955 -10.5801 4.51885
rclavicle 1.53511e-013 -1.98785e-015
rhumerus -57.84 15.7397 -68.592
rradius 49.2681
rwrist 18.5508
rhand -15.2171 -54.8426
rfingers 7.12502
rthumb -169.045 1895.46
lclavicle 1.53511e-013 -1.98785e-015
lhumerus 28.3863 -57.4914 46.5954
lradius 88.8637
lwrist -4.4267
lhand -9.74624 -34.641
lfingers 7.12502
lthumb 16.228 -5.30017
rfemur -15.5379 14.7621 27.2754
rtibia 35.9291
rfoot -18.5662 -5.77917
rtoes 26.5777
lfemur -21.7883 -16.2915 -13.7928
ltibia 37.6773
lfoot -27.9128 -7.77595
ltoes -40.6845
